<?xml version="1.0" standalone="no"?>
<!DOCTYPE svg PUBLIC "-//W3C//DTD SVG 20010904//EN"
 "http://www.w3.org/TR/2001/REC-SVG-20010904/DTD/svg10.dtd">
<svg version="1.0" xmlns="http://www.w3.org/2000/svg"
 width="279.000000pt" height="320.000000pt" viewBox="0 0 279.000000 320.000000"
 preserveAspectRatio="xMidYMid meet">
<metadata>
Created by potrace 1.16, written by Peter Selinger 2001-2019
</metadata>
<g transform="translate(0.000000,320.000000) scale(0.100000,-0.100000)"
fill="#000000" stroke="none">
<path d="M1275 3148 c-157 -60 -252 -91 -415 -135 -264 -71 -239 -67 -269 -41
-26 22 -26 22 1 -7 l27 -29 143 34 c79 18 197 48 263 67 66 19 131 37 145 39
24 5 24 5 5 -8 -12 -7 -19 -20 -17 -29 2 -10 -8 -21 -28 -29 -16 -7 -30 -16
-30 -20 0 -17 -206 -80 -384 -117 l-40 -8 45 -45 c74 -74 397 -511 570 -772
l98 -147 -29 -53 c-16 -29 -33 -52 -37 -52 -4 1 -18 -18 -29 -42 l-21 -44 -45
67 c-211 316 -439 698 -554 926 -24 48 -46 87 -49 87 -2 0 -1 -8 3 -17 4 -10
16 -37 26 -60 10 -23 35 -75 55 -115 85 -166 110 -215 124 -248 9 -19 29 -65
45 -101 l29 -66 -20 -16 c-30 -24 -80 -31 -122 -17 -51 17 -55 6 -5 -14 51
-20 79 -20 108 0 20 14 23 14 28 -1 12 -31 -2 -118 -22 -132 -35 -27 -94 -8
-139 43 -60 69 -144 75 -223 17 -51 -38 -65 -75 -60 -157 11 -168 118 -266
288 -266 78 0 141 20 183 58 25 24 27 24 27 6 0 -10 -17 -44 -38 -74 -27 -41
-51 -62 -92 -83 -51 -27 -62 -28 -151 -25 -84 3 -104 8 -161 36 -130 64 -190
152 -191 281 -1 136 65 242 188 301 59 29 64 41 8 19 -76 -29 -184 -8 -175 34
2 11 -3 17 -15 17 -17 1 -17 1 -1 14 16 12 16 14 -8 26 -22 12 -23 15 -8 23
13 8 14 11 3 18 -11 7 -10 11 5 22 18 13 17 15 -14 26 -32 11 -32 12 -16 30
17 19 17 20 -6 23 l-23 5 24 10 c24 10 24 10 3 15 -28 8 -28 24 -1 31 26 7 16
27 -14 28 -21 0 -21 1 3 10 23 9 23 11 7 20 -9 6 -15 14 -12 19 3 5 0 12 -5
15 -7 5 -5 12 7 21 10 7 13 14 7 14 -7 0 -14 9 -17 20 -7 26 -57 28 -57 3 -1
-62 -13 -314 -20 -393 -7 -94 -7 -94 -9 55 -1 200 10 495 20 495 11 0 18 -27
21 -78 1 -32 6 -41 16 -37 7 3 18 5 23 5 6 0 8 4 5 8 -3 5 -7 20 -10 35 -3 20
1 30 15 38 11 5 17 14 14 19 -6 10 14 15 188 40 76 11 142 18 147 15 12 -8 13
15 1 34 -8 12 -22 11 -92 -3 -115 -24 -295 -32 -343 -16 -32 10 -40 10 -55 -4
-18 -16 -21 -26 -21 -83 0 -18 -5 -35 -10 -38 -5 -3 -7 22 -5 62 2 37 4 78 4
89 1 17 9 23 43 28 46 7 262 32 366 43 41 4 62 10 62 19 0 10 -7 11 -27 4 -16
-5 -118 -16 -227 -25 -202 -16 -229 -22 -239 -50 -4 -8 -12 -181 -19 -385 -13
-402 -7 -538 33 -748 67 -352 172 -629 339 -893 77 -121 195 -269 215 -269 28
0 -6 -58 -66 -114 -50 -48 -59 -61 -57 -88 l1 -33 4 33 c5 35 23 45 23 12 0
-39 38 -22 81 35 49 65 62 73 21 13 -42 -62 -43 -66 -32 -73 5 -3 17 10 27 30
12 24 19 31 25 23 5 -8 7 -4 6 11 -2 15 3 25 13 26 14 3 14 -4 -5 -49 -23 -55
-33 -67 -56 -65 -29 2 -38 -1 -44 -16 -4 -10 2 -19 17 -25 21 -8 21 -9 -5 -9
-17 -1 -34 8 -47 25 -12 15 -21 22 -21 17 0 -23 47 -53 84 -53 41 0 80 16 71
30 -3 5 0 12 6 16 8 4 9 3 5 -4 -4 -7 -3 -12 2 -12 12 0 36 95 27 109 -9 15
21 74 52 102 23 21 23 19 -7 -25 -18 -27 -28 -46 -22 -42 7 4 12 2 12 -4 0 -6
4 -8 10 -5 5 3 10 2 10 -3 0 -5 19 -23 43 -40 23 -17 56 -44 73 -61 43 -41
186 -135 314 -206 58 -33 120 -70 138 -84 l33 -24 102 51 c56 29 158 88 226
133 69 44 132 81 142 82 10 1 17 6 16 12 -1 5 6 9 15 9 10 -1 15 2 12 7 -3 5
2 9 10 9 9 0 23 11 32 25 9 14 20 22 25 19 5 -3 9 2 9 11 0 9 4 14 9 10 6 -3
14 2 19 11 5 9 12 15 16 14 11 -2 56 37 56 50 0 6 3 9 8 7 4 -3 6 13 5 35 l-1
40 25 -24 c24 -22 53 -69 53 -84 0 -4 -7 1 -15 12 -13 17 -13 16 -3 -13 8 -22
15 -29 20 -20 5 7 6 -5 2 -25 -5 -33 -2 -41 24 -68 40 -39 107 -43 140 -7 30
32 28 42 -3 12 -15 -16 -35 -25 -52 -24 -21 1 -23 3 -8 6 11 3 25 9 30 15 13
12 -20 37 -43 32 -24 -6 -34 5 -58 62 -28 67 -5 69 31 2 15 -26 31 -46 36 -42
10 6 8 10 -23 59 -15 23 -11 21 15 -9 37 -42 77 -55 77 -26 0 9 4 20 9 26 6 5
-10 26 -43 54 -47 39 -96 111 -96 140 0 5 12 22 26 37 102 109 280 422 354
623 32 88 95 304 105 365 4 22 11 43 16 46 10 6 38 124 40 169 1 23 2 23 9 -5
l8 -30 1 35 c1 19 4 62 8 94 7 74 -15 550 -27 591 -5 17 -10 99 -12 183 l-3
152 -30 9 c-16 5 -95 14 -175 21 -185 14 -283 28 -290 40 -3 5 -12 -7 -19 -28
-16 -44 -216 -452 -299 -609 -33 -62 -106 -189 -163 -284 -57 -94 -153 -254
-214 -355 -274 -457 -321 -533 -331 -534 -5 0 -20 17 -32 38 -24 42 -30 21 -9
-31 19 -44 43 -62 87 -63 20 -1 75 -7 122 -14 75 -11 94 -11 150 3 35 9 73 14
84 11 30 -8 78 37 93 86 17 56 7 61 -19 11 -11 -23 -24 -41 -28 -41 -8 0 -202
305 -202 319 0 5 6 14 14 20 8 7 12 20 9 31 -3 11 1 26 8 33 8 8 27 36 43 63
l28 49 28 -33 c36 -44 240 -359 240 -372 0 -13 17 -13 26 1 3 6 16 8 29 5 19
-5 34 6 84 59 58 62 72 85 52 85 -4 0 -21 -10 -36 -22 l-28 -22 17 27 c17 25
17 26 -1 22 -10 -2 -32 -7 -50 -10 l-31 -7 14 73 c7 40 19 88 25 106 6 18 7
38 3 44 -4 7 -3 9 3 6 6 -4 14 1 18 11 6 16 7 16 17 -2 6 -11 8 -45 4 -86 -7
-72 -3 -80 45 -80 23 0 25 18 4 26 -26 10 -17 24 15 24 28 0 100 24 100 33 0
2 -26 1 -58 -1 l-58 -4 0 43 c0 69 -125 443 -160 480 l-28 29 102 0 c61 0 102
4 102 10 0 6 -5 10 -12 10 -6 0 -3 6 8 14 19 15 19 15 -1 30 -11 9 -14 16 -7
16 6 0 12 12 12 28 0 25 5 29 53 43 l52 16 7 -61 c8 -65 4 -91 -12 -81 -5 3
-10 -1 -10 -9 0 -13 16 -16 95 -16 80 0 93 -2 89 -15 -4 -8 -12 -15 -19 -15
-8 0 -17 -5 -20 -10 -4 -6 22 -98 56 -205 72 -224 69 -222 134 -84 47 100 58
193 30 245 -10 19 -22 34 -27 34 -20 0 -5 30 26 54 19 14 37 26 41 26 3 0 13
-16 21 -35 18 -43 18 -126 0 -186 -16 -53 -83 -188 -120 -242 -31 -45 -33 -67
-6 -74 11 -3 20 -9 20 -13 0 -12 -28 -20 -92 -27 l-58 -6 0 31 c0 42 -39 194
-54 210 -10 10 -16 2 -28 -37 -11 -34 -12 -50 -5 -48 16 3 46 -89 47 -139 l0
-41 51 -6 c33 -4 63 -2 83 7 17 7 38 11 46 9 12 -4 12 -3 1 5 -20 14 4 25 37
17 l27 -7 -25 -11 c-25 -10 -25 -10 -2 -14 27 -5 28 -14 2 -31 -24 -15 -18
-32 11 -32 14 0 19 7 19 25 0 14 5 33 11 43 5 9 19 44 29 77 17 53 19 55 15
20 -7 -66 43 142 62 255 14 86 17 166 16 450 -1 190 -5 370 -8 400 -6 45 -4
53 7 42 10 -10 14 -94 16 -390 5 -409 -2 -489 -54 -711 -13 -57 -22 -106 -20
-108 5 -5 48 177 71 297 13 65 14 68 9 20 -12 -140 -70 -429 -94 -472 -6 -10
-10 -24 -10 -32 0 -8 -5 -27 -12 -43 -6 -15 -12 -30 -13 -33 -1 -3 -5 -12 -8
-20 -4 -8 -8 -24 -10 -35 -5 -28 -73 -162 -94 -183 -7 -8 -21 -28 -30 -45 -42
-83 -163 -255 -163 -233 0 3 27 49 61 102 33 53 69 115 80 138 23 49 17 40
-59 -82 -65 -106 -141 -206 -149 -199 -2 3 27 52 66 108 68 99 84 128 59 113
-7 -4 -8 -3 -4 5 4 6 11 9 16 6 11 -7 32 31 36 60 1 12 18 55 39 96 39 80 99
228 109 270 4 21 2 26 -12 24 -35 -3 -53 -17 -47 -36 5 -15 1 -19 -15 -19 -14
0 -20 -5 -18 -17 2 -12 -4 -19 -20 -21 -12 -2 -20 -7 -17 -12 3 -5 -16 -18
-42 -30 l-48 -20 0 -83 c0 -71 -4 -90 -31 -147 -18 -36 -45 -81 -62 -100 l-30
-35 -21 24 c-12 13 -21 27 -21 31 0 3 18 24 41 45 40 40 79 102 79 127 -1 7
-10 -5 -22 -27 -22 -44 -76 -105 -92 -105 -5 0 4 15 21 32 36 39 63 79 63 93
0 5 -14 -8 -32 -29 -33 -41 -87 -70 -112 -60 -8 3 -12 12 -9 20 3 8 1 14 -5
14 -6 0 -15 14 -21 30 -5 17 -14 30 -20 30 -5 0 -8 19 -6 44 3 42 15 72 42
106 6 8 14 29 18 45 6 29 5 28 -38 -18 -25 -27 -52 -50 -62 -51 -9 -1 -37 -19
-63 -39 -26 -20 -55 -43 -66 -50 -16 -12 -17 -16 -5 -35 11 -18 11 -24 1 -34
-11 -11 -16 -9 -27 6 -8 10 -12 23 -9 27 7 12 -19 11 -31 0 -18 -17 -160 -72
-222 -87 -49 -11 -77 -12 -138 -3 -71 9 -227 60 -250 80 -16 16 -34 10 -37
-13 -2 -13 -10 -23 -18 -23 -21 0 -25 36 -6 47 13 7 2 19 -58 59 -41 28 -78
51 -83 50 -15 0 -52 42 -46 52 3 6 1 7 -5 3 -6 -3 -19 5 -29 20 -10 14 -26 33
-35 42 -10 9 -18 22 -18 28 0 7 -7 14 -15 18 -22 8 -18 26 5 26 35 0 88 -27
101 -52 l12 -23 -25 23 c-13 12 -27 22 -31 22 -20 0 0 -31 55 -87 52 -53 65
-61 88 -56 15 3 31 0 34 -6 7 -10 68 87 304 479 41 69 92 150 112 180 20 30
68 105 105 165 138 224 431 642 551 784 l83 99 -42 10 c-23 6 -87 21 -142 32
-164 35 -335 88 -488 151 -100 41 -120 42 -212 7z m-226 -277 c11 -7 10 -11
-4 -19 -32 -17 -9 -31 35 -20 43 11 65 4 40 -13 -13 -7 -13 -10 -1 -18 10 -6
1 -15 -33 -32 -25 -12 -54 -31 -64 -42 -16 -18 -14 -18 23 2 22 11 44 21 50
21 5 -1 -6 -9 -26 -20 -19 -10 -42 -26 -50 -36 -13 -16 -12 -16 8 -6 12 7 36
12 53 12 29 0 32 -2 26 -25 -5 -21 -3 -25 16 -25 21 -1 21 -2 5 -11 -9 -6 -15
-15 -11 -20 3 -6 -4 -18 -17 -27 l-24 -17 30 -5 30 -6 -30 -17 c-22 -11 -25
-16 -12 -17 32 0 7 -20 -26 -20 -40 0 -72 21 -92 61 -9 16 -20 27 -25 24 -10
-6 -32 29 -23 38 3 4 -5 12 -18 18 -13 7 -57 48 -98 92 -87 93 -88 91 49 118
95 19 168 23 189 10z m468 -11 c63 -22 99 -25 108 -10 11 18 25 11 25 -12 0
-13 -6 -34 -13 -48 -10 -21 -19 -24 -47 -22 -21 2 -47 15 -65 32 -43 40 -68
50 -120 50 -35 0 -51 -6 -70 -25 -31 -30 -32 -55 -1 -88 17 -18 38 -27 72 -31
148 -19 201 -43 233 -110 27 -56 26 -100 -3 -150 -41 -70 -103 -91 -234 -81
-136 10 -204 11 -224 1 -44 -21 -3 97 50 148 33 31 34 31 47 -28 15 -68 111
-118 183 -95 86 27 108 93 52 160 -30 37 -45 43 -170 69 -89 18 -140 63 -140
125 0 41 31 91 69 114 49 28 169 29 248 1z m-1354 -76 c-15 -226 -23 -659 -13
-773 25 -305 120 -663 235 -891 15 -29 24 -54 21 -57 -6 -6 -69 124 -107 218
-73 184 -113 331 -155 579 -18 105 -36 825 -21 847 4 6 4 14 -1 17 -10 6 -1
63 13 85 12 21 30 5 28 -25z m2197 -791 c29 -119 40 -246 21 -257 -11 -7 -23
23 -60 147 -28 97 -29 105 -7 195 2 12 1 22 -4 22 -5 0 -7 7 -3 16 10 27 21 1
53 -123z m-1744 58 c40 12 48 8 98 -48 34 -38 36 -43 17 -43 -31 0 -26 -11 30
-65 l51 -50 -7 33 c-6 29 -3 38 21 63 15 16 33 29 38 29 6 0 24 11 40 25 31
27 50 32 43 13 -2 -7 0 -25 4 -40 4 -16 3 -30 -2 -34 -6 -3 -5 -12 3 -22 10
-12 10 -14 1 -8 -18 10 -16 -4 3 -25 10 -11 12 -19 5 -24 -6 -3 -11 -2 -11 4
0 18 -61 81 -79 81 -25 0 -41 -20 -41 -51 0 -36 21 -51 69 -48 47 4 59 -4 40
-27 -7 -9 -14 -22 -15 -30 -3 -16 -67 -84 -81 -84 -6 0 -16 -6 -22 -14 -7 -8
-36 -18 -64 -21 -71 -9 -160 21 -205 70 l-32 35 45 87 c50 98 53 112 26 134
-17 16 -19 13 -40 -45 -20 -56 -62 -140 -46 -91 23 68 36 107 51 160 10 33 19
53 21 43 3 -13 10 -15 39 -7z m923 -1187 c56 -25 105 -31 116 -14 3 6 11 10
17 10 15 0 3 -79 -15 -97 -25 -25 -86 -6 -136 44 -27 26 -62 48 -86 54 -35 10
-45 9 -85 -12 -113 -60 -129 -243 -29 -334 49 -44 88 -62 152 -69 71 -8 77 -3
77 69 0 83 -12 111 -55 132 -30 14 -38 15 -60 3 -13 -7 -30 -26 -37 -42 -7
-15 -15 -28 -19 -28 -7 0 -49 39 -49 46 0 11 23 49 34 56 18 13 88 9 146 -8
30 -8 90 -17 134 -19 88 -5 102 -9 56 -18 -36 -8 -50 -37 -50 -108 0 -36 5
-54 20 -69 11 -11 20 -22 20 -24 0 -1 -35 -13 -77 -25 -43 -12 -88 -27 -100
-33 -12 -6 -55 -9 -100 -6 -63 4 -90 10 -133 34 -133 72 -177 230 -99 358 73
122 218 162 358 100z m456 -307 c-36 -56 -237 -217 -387 -312 -81 -50 -101
-67 -47 -40 46 24 45 12 -1 -20 -23 -16 -44 -33 -48 -39 -10 -16 -83 -71 -104
-79 -32 -12 -148 59 -221 136 -15 16 -26 31 -23 34 2 2 50 -21 107 -51 107
-59 138 -67 135 -39 -1 12 30 34 99 71 142 77 285 177 395 276 98 87 122 103
95 63z"/>
<path d="M2082 2088 c-17 -17 -15 -39 7 -62 22 -25 71 -169 71 -211 0 -39 -31
-100 -50 -100 -10 0 -26 31 -46 90 -39 109 -39 116 -14 143 26 27 25 30 -7 34
-19 2 -27 8 -25 18 8 32 12 84 6 73 -3 -7 -14 -13 -24 -13 -31 0 -30 -25 4
-122 18 -51 48 -137 65 -191 32 -95 34 -98 52 -81 30 27 79 134 79 173 0 55
-49 191 -79 219 -14 13 -25 28 -23 33 3 12 -2 11 -16 -3z"/>
</g>
</svg>
